<svg xmlns="http://www.w3.org/2000/svg" version="1.1" xmlns:xlink="http://www.w3.org/1999/xlink" viewBox="0 0 200 200"><rect width="200" height="200" fill="url('#gradient')"></rect><defs><linearGradient id="gradient" gradientTransform="rotate(123 0.5 0.5)"><stop offset="0%" stop-color="#7ca539"></stop><stop offset="100%" stop-color="#496094"></stop></linearGradient></defs><g><g fill="#83bc78" transform="matrix(1.7817070303315308,0,0,1.7817070303315308,25.373435510205518,113.19576691336668)" stroke="#5bcad4" stroke-width="0.8"><path d="M12.24-14.22L12.24-11.57L7.97-11.57L7.97 0L4.54 0L4.54-11.57L0.35-11.57L0.35-14.22L12.24-14.22ZM18.32-2.97L18.32-2.97Q18.32-3.39 17.88-3.64Q17.44-3.90 16.21-4.17Q14.98-4.44 14.18-4.89Q13.38-5.33 12.96-5.97Q12.54-6.60 12.54-7.42L12.54-7.42Q12.54-8.88 13.74-9.82Q14.94-10.76 16.88-10.76L16.88-10.76Q18.97-10.76 20.24-9.81Q21.51-8.87 21.51-7.32L21.51-7.32L18.21-7.32Q18.21-8.59 16.88-8.59L16.88-8.59Q16.36-8.59 16.01-8.31Q15.65-8.02 15.65-7.59L15.65-7.59Q15.65-7.15 16.08-6.88Q16.51-6.60 17.46-6.43Q18.40-6.25 19.11-6.01L19.11-6.01Q21.49-5.19 21.49-3.07L21.49-3.07Q21.49-1.62 20.21-0.71Q18.93 0.20 16.88 0.20L16.88 0.20Q15.53 0.20 14.46-0.29Q13.40-0.78 12.80-1.62Q12.21-2.46 12.21-3.39L12.21-3.39L15.28-3.39Q15.30-2.66 15.77-2.32Q16.24-1.98 16.97-1.98L16.97-1.98Q17.65-1.98 17.98-2.26Q18.32-2.53 18.32-2.97ZM29.58 0L27.28-3.94L26.35-3.01L26.35 0L23.06 0L23.06-15.01L26.35-15.01L26.35-7.04L26.68-7.48L29.16-10.57L33.11-10.57L29.40-6.22L33.35 0L29.58 0ZM41.46-3.78L41.46-3.78Q41.46-4.53 40.92-4.95Q40.39-5.37 39.05-5.82Q37.71-6.27 36.87-6.69L36.87-6.69Q34.10-8.05 34.10-10.42L34.10-10.42Q34.10-11.60 34.79-12.50Q35.48-13.41 36.74-13.91Q38.00-14.41 39.57-14.41L39.57-14.41Q41.10-14.41 42.32-13.87Q43.54-13.32 44.21-12.31Q44.88-11.30 44.88-10L44.88-10L41.46-10Q41.46-10.87 40.93-11.35Q40.40-11.83 39.49-11.83L39.49-11.83Q38.57-11.83 38.04-11.42Q37.51-11.02 37.51-10.39L37.51-10.39Q37.51-9.84 38.10-9.40Q38.68-8.96 40.16-8.48Q41.63-8.01 42.58-7.46L42.58-7.46Q44.88-6.13 44.88-3.80L44.88-3.80Q44.88-1.93 43.48-0.87Q42.07 0.20 39.62 0.20L39.62 0.20Q37.89 0.20 36.49-0.42Q35.09-1.04 34.38-2.12Q33.67-3.20 33.67-4.61L33.67-4.61L37.11-4.61Q37.11-3.47 37.70-2.92Q38.29-2.38 39.62-2.38L39.62-2.38Q40.47-2.38 40.96-2.75Q41.46-3.12 41.46-3.78ZM46.51-10.57L49.60-10.57L49.71-9.33Q50.83-10.76 52.72-10.76L52.72-10.76Q54.73-10.76 55.43-9.17L55.43-9.17Q56.50-10.76 58.54-10.76L58.54-10.76Q61.75-10.76 61.84-6.88L61.84-6.88L61.84 0L58.54 0L58.54-6.67Q58.54-7.48 58.26-7.85Q57.99-8.22 57.27-8.22L57.27-8.22Q56.29-8.22 55.81-7.35L55.81-7.35L55.82-7.22L55.82 0L52.52 0L52.52-6.65Q52.52-7.48 52.26-7.85Q51.99-8.22 51.25-8.22L51.25-8.22Q50.30-8.22 49.80-7.35L49.80-7.35L49.80 0L46.51 0L46.51-10.57ZM69.25-2.97L69.25-2.97Q69.25-3.39 68.81-3.64Q68.37-3.90 67.14-4.17Q65.91-4.44 65.11-4.89Q64.31-5.33 63.89-5.97Q63.47-6.60 63.47-7.42L63.47-7.42Q63.47-8.88 64.67-9.82Q65.87-10.76 67.81-10.76L67.81-10.76Q69.90-10.76 71.17-9.81Q72.44-8.87 72.44-7.32L72.44-7.32L69.14-7.32Q69.14-8.59 67.80-8.59L67.80-8.59Q67.29-8.59 66.93-8.31Q66.58-8.02 66.58-7.59L66.58-7.59Q66.58-7.15 67.01-6.88Q67.44-6.60 68.38-6.43Q69.33-6.25 70.04-6.01L70.04-6.01Q72.42-5.19 72.42-3.07L72.42-3.07Q72.42-1.62 71.14-0.71Q69.85 0.20 67.81 0.20L67.81 0.20Q66.46 0.20 65.39-0.29Q64.33-0.78 63.73-1.62Q63.13-2.46 63.13-3.39L63.13-3.39L66.21-3.39Q66.23-2.66 66.70-2.32Q67.17-1.98 67.90-1.98L67.90-1.98Q68.57-1.98 68.91-2.26Q69.25-2.53 69.25-2.97ZM77.18-15L77.18-9.43Q78.23-10.76 79.87-10.76L79.87-10.76Q81.62-10.76 82.51-9.73Q83.40-8.69 83.42-6.67L83.42-6.67L83.42 0L80.12 0L80.12-6.59Q80.12-7.43 79.78-7.83Q79.43-8.22 78.61-8.22L78.61-8.22Q77.60-8.22 77.18-7.58L77.18-7.58L77.18 0L73.89 0L73.89-15L77.18-15Z"></path></g></g></svg>